<?xml version="1.0" encoding="utf-8"?>
<!-- Generator: Adobe Illustrator 26.0.1, SVG Export Plug-In . SVG Version: 6.00 Build 0)  -->
<svg version="1.1" id="Layer_1" xmlns="http://www.w3.org/2000/svg" xmlns:xlink="http://www.w3.org/1999/xlink" x="0px" y="0px"
	 viewBox="0 0 342 72" style="enable-background:new 0 0 342 72;" xml:space="preserve">
<style type="text/css">
	.st0{fill:#373332;}
</style>
<g>
	<path class="st0" d="M44.4,54.5l-2.7-7.8H26.5l-2.7,7.8h-6.2l14.1-38.6h4.7l14.1,38.6H44.4z M34.2,24.6l-6,17.1h11.9L34.2,24.6z"/>
	<path class="st0" d="M73.6,54.8c-4.2,0-7.5-1.4-10-3.9c-3.7-3.8-3.9-7.6-3.9-15.7s0.2-11.9,3.9-15.7c2.5-2.5,5.8-3.9,10-3.9
		c7.1,0,12.4,4.2,13.8,11.9h-6c-0.9-4-3.5-6.7-7.8-6.7c-2.3,0-4.3,0.9-5.7,2.4c-1.9,2.1-2.3,4.4-2.3,12s0.4,10,2.3,12
		c1.4,1.5,3.4,2.4,5.7,2.4c4.3,0,7-2.7,7.9-6.7h5.8C86,50.6,80.6,54.8,73.6,54.8z"/>
	<g>
		<path class="st0" d="M166.7,54.4l-2.7-7.8h-15.2l-2.7,7.8h-6.2L154,15.8h4.7l14.1,38.6H166.7z M156.5,24.6l-6,17.1h11.9
			L156.5,24.6z"/>
	</g>
	<g>
		<path class="st0" d="M207.6,54.4l-8.1-16.3h-7.3v16.3h-5.9V15.8h15c7.3,0,12,4.7,12,11.3c0,5.5-3.4,9-7.7,10.2l8.9,17.1
			L207.6,54.4L207.6,54.4z M200.8,21.1h-8.7v12.1h8.7c3.9,0,6.6-2.2,6.6-6S204.7,21.1,200.8,21.1z"/>
	</g>
	<g>
		<path class="st0" d="M243.4,21.1v33.3h-5.9V21.1h-10.6v-5.3H254v5.3H243.4z"/>
	</g>
	<g>
		<path class="st0" d="M270.2,54.4V15.8h5.9v38.6H270.2z"/>
	</g>
	<g>
		<path class="st0" d="M320.1,54.4l-17.8-27.2v27.2h-5.9V15.8h5.4l17.8,27.1V15.8h5.9v38.6H320.1z"/>
	</g>
	<polygon class="st0" points="121.6,15.9 121.6,15.9 121.6,15.9 110.9,34.4 100.2,15.9 100.2,15.9 100.2,15.9 93.9,15.9 100.2,26.7 
		110.9,45.8 121.6,26.7 121.6,54.4 127.8,54.4 127.8,15.9 	"/>
</g>
</svg>
