<?xml version="1.0" ?>
<svg width="141" height="28" viewBox="0 0 141 28" fill="none" xmlns="http://www.w3.org/2000/svg">
<path fill-rule="evenodd" clip-rule="evenodd" d="M24.8156 27.0253H20.8587L19.7834 24.2603C18.1306 26.4907 15.3656 27.4062 12.6437 27.4062C4.96329 27.4062 0.858887 21.4954 0.858887 14.2758C0.858887 10.8227 1.74367 7.20982 3.93105 4.48789C6.42564 1.34199 9.61454 0.303604 13.4916 0.303604C19.5929 0.303604 23.6666 3.41263 24.8156 9.44021L16.9816 10.2451C16.6744 8.13147 15.7896 6.13457 13.3319 6.13457C9.6084 6.13457 9.37492 11.1238 9.37492 13.815C9.37492 15.3511 9.44865 17.2681 10.0631 18.6505C10.7144 20.1866 11.9801 21.182 13.6698 21.182C15.7404 21.182 17.2765 19.9163 17.2765 17.8395H12.9386V12.2727H24.8033V27.0253H24.8156ZM35.0275 14.8964C35.0275 13.0899 35.7586 11.517 37.7555 11.517C39.9061 11.517 40.5205 12.9732 40.5205 14.8964H35.0275ZM41.0182 20.0023C40.711 21.692 39.7524 22.3863 38.0259 22.3863C35.7218 22.3863 35.0336 20.8502 35.0336 18.7366H48.2009V17.6982C48.2009 11.2466 44.2071 7.02549 37.6818 7.02549C34.88 7.02549 31.8816 7.984 29.8847 10.0608C28.0414 11.9409 27.003 14.8226 27.046 17.4708C27.0091 20.2727 28.1212 22.9577 30.2349 24.844C32.4591 26.8041 35.2671 27.4185 38.1426 27.4185C42.7877 27.4185 47.0089 25.2311 48.2009 20.4693L41.0182 20.0023ZM50.6893 7.40644H57.8659V10.1714H57.9458C58.8674 7.941 61.1347 7.02549 63.5125 7.02549C65.3558 7.02549 67.4695 7.56619 68.6185 9.05926C69.8473 10.6691 69.8473 12.8995 69.8473 14.9332V27.0253H62.2468V15.1237C62.2468 13.9317 62.2468 12.2789 60.594 12.2789C58.4803 12.2789 58.2899 14.0853 58.2899 15.6951V27.0191H50.6893V7.40644ZM78.0254 20.6536C78.4494 22.5338 80.5569 22.7611 82.2097 22.7611C82.9777 22.7611 85.1283 22.6874 85.1283 21.5322C85.1283 20.5369 82.5169 20.3402 81.8288 20.2665C77.7182 19.6889 72.8458 18.884 72.8458 13.6614C72.8458 11.4371 74.0378 9.66755 75.8811 8.51856C77.8042 7.32656 79.9916 7.01934 82.179 7.01934C85.8656 7.01934 89.7426 8.43869 91.0452 12.1253L85.245 13.2374C84.6674 11.8918 83.1744 11.5108 81.8288 11.5108C80.4463 11.5108 79.371 11.9717 79.371 12.5492C79.371 13.1637 79.9056 13.391 80.52 13.5508C81.3679 13.7781 82.8979 13.8948 83.8195 14.0116C85.5891 14.2389 87.6229 14.4724 89.1589 15.4739C90.9654 16.6229 91.9239 18.3556 91.9239 20.4631C91.9239 25.8763 86.2035 27.4124 81.7857 27.4124C77.411 27.4124 73.3803 25.993 71.918 21.4647L78.0254 20.6536ZM101.675 27.0253H94.0744V0.690692H101.675V27.0253ZM112.581 14.8964C112.581 13.0899 113.312 11.517 115.309 11.517C117.46 11.517 118.074 12.9732 118.074 14.8964H112.581ZM118.566 20.0023C118.258 21.692 117.3 22.3863 115.573 22.3863C113.269 22.3863 112.581 20.8502 112.581 18.7366H125.748V17.6982C125.748 11.2466 121.755 7.02549 115.229 7.02549C112.427 7.02549 109.429 7.984 107.438 10.0608C105.595 11.9409 104.557 14.8226 104.6 17.4708C104.563 20.2727 105.675 22.9577 107.789 24.844C110.013 26.8041 112.821 27.4185 115.696 27.4185C120.341 27.4185 124.563 25.2311 125.755 20.4693L118.566 20.0023ZM134.768 11.4371C135.42 8.70903 136.839 6.792 139.874 7.01934L140.913 7.09922V13.9747C140.433 13.8518 139.948 13.7842 139.456 13.7842C138.227 13.7842 136.962 14.0116 136.347 15.1298C135.807 16.0884 135.807 17.3541 135.807 18.5092V27.0314H128.206V7.40644H134.694V11.4371H134.768Z" fill="#373332"/>
</svg>
