<?xml version="1.0"?>
<svg width="80" height="80" viewBox="0 0 80 80" fill="none" xmlns="http://www.w3.org/2000/svg">
<path d="M43.2189 39.7097H40.7591C40.7591 39.6474 40.7591 39.5939 40.7591 39.5435C40.7591 37.2389 40.7591 34.9334 40.7591 32.6269C40.7591 32.1343 40.7799 31.6388 40.7917 31.1432C40.7917 30.7901 40.8095 30.437 40.8244 30.0839C40.8244 29.9623 40.8422 29.8377 40.8511 29.713H40.8155C40.6552 30.5468 40.498 31.3777 40.3318 32.2085C40.1657 33.0393 40.0025 33.879 39.8304 34.7128C39.6583 35.5466 39.4862 36.3804 39.3141 37.2142C39.142 38.048 38.9728 38.8788 38.8007 39.7156H37.4595C37.1252 38.0579 36.7899 36.3982 36.4536 34.7366C36.1183 33.0809 35.7771 31.4251 35.5071 29.7546H35.4715C35.4715 29.8466 35.4715 29.9385 35.4715 30.0305C35.4715 30.624 35.4982 31.2382 35.5012 31.8405C35.5012 34.3963 35.5091 36.9501 35.5249 39.502V39.7067H33.0947V25.9506H36.7622C37.234 28.5706 37.7978 31.164 38.1806 33.793C38.1822 33.7832 38.1822 33.7731 38.1806 33.7633C38.5485 31.1521 39.1212 28.5796 39.6048 25.9921C39.6048 25.9921 39.6048 25.9921 39.6227 25.9684H43.1833L43.2189 39.7097Z" fill="#373332"/>
<path d="M35.4152 58.0705H35.5784C37.1272 58.0705 38.6761 58.0705 40.225 58.0705C40.7811 58.0638 41.3312 58.1846 41.8333 58.4236C42.1201 58.5635 42.3741 58.7624 42.5787 59.0074C42.7832 59.2523 42.9337 59.5377 43.0202 59.8449C43.1507 60.2537 43.2187 60.6799 43.222 61.109C43.222 62.1534 43.222 63.186 43.222 64.2394C43.222 65.6419 43.222 67.0444 43.222 68.4469C43.2244 68.8698 43.1806 69.2917 43.0914 69.705C42.9965 70.1871 42.7742 70.6348 42.4475 71.0017C42.149 71.3137 41.7717 71.5392 41.3556 71.6545C40.9874 71.7687 40.6046 71.8287 40.2191 71.8326L35.5754 71.8533H35.4062L35.4152 58.0705ZM38.3824 69.438C38.7266 69.438 39.056 69.4588 39.3794 69.438C39.5842 69.4428 39.7834 69.3705 39.9373 69.2352C40.0912 69.1 40.1887 68.9118 40.2102 68.708C40.2543 68.4802 40.2761 68.2487 40.2755 68.0167C40.2755 65.9396 40.2755 63.8625 40.2755 61.7855C40.2775 61.5871 40.2656 61.3888 40.2399 61.192C40.2351 61.0719 40.206 60.954 40.1544 60.8454C40.1028 60.7368 40.0298 60.6398 39.9396 60.5602C39.8495 60.4806 39.7442 60.4201 39.6301 60.3823C39.5159 60.3446 39.3953 60.3303 39.2755 60.3404C39.0203 60.3404 38.7652 60.3404 38.51 60.3404C38.4675 60.3376 38.4249 60.3376 38.3824 60.3404V69.438Z" fill="#373332"/>
<path d="M14.9171 55.7594V50.0593C14.2391 50.0219 13.5596 50.0219 12.8816 50.0593V55.7831H9.94998C9.91437 55.6674 9.89953 42.3919 9.93217 42.0448C10.0449 42.0092 12.6531 42.0003 12.8757 42.0448V47.2107H14.9082V42.021C15.0447 41.9854 17.6678 41.9795 17.8606 42.021V55.7712L14.9171 55.7594Z" fill="#373332"/>
<path d="M57.1291 25.9471H59.5771V39.7062H57.0608C56.9956 39.5252 56.9303 39.3412 56.868 39.1573C56.5445 38.2285 56.227 37.2998 55.9066 36.371C55.5268 35.2791 55.1381 34.1901 54.7731 33.1071C54.5446 32.4216 54.3547 31.7243 54.147 31.03C54.147 31.03 54.147 31.0092 54.1173 30.9973C54.1143 31.0557 54.1143 31.1141 54.1173 31.1724C54.1737 31.8489 54.1796 32.5284 54.1826 33.205C54.1826 35.3018 54.1895 37.3997 54.2034 39.4985V39.7151H51.7139V25.9649C51.8385 25.9323 54.1233 25.9174 54.5505 25.9649L55.8739 30.0716C56.3161 31.4454 56.7641 32.8133 57.1706 34.2079C57.1706 34.1575 57.1706 34.11 57.1706 34.0625C57.1706 33.8934 57.1469 33.7272 57.1409 33.5581C57.1409 33.2614 57.1172 32.9943 57.1172 32.7124V25.9471H57.1291Z" fill="#373332"/>
<path d="M56.3787 64.9277C56.3787 65.9781 56.3787 67.0255 56.3787 68.0759C56.3828 68.5259 56.3361 68.9748 56.2392 69.4142C56.1119 70.0349 55.8115 70.6068 55.3728 71.064C54.9835 71.4392 54.5043 71.7079 53.9811 71.8443C53.5368 71.9668 53.0771 72.0247 52.6162 72.0164C52.3195 72.0164 51.9961 72.0164 51.6875 72.0016C51.0141 71.9763 50.3588 71.777 49.7855 71.423C49.1836 71.0284 48.7475 70.4265 48.56 69.7317C48.4266 69.3011 48.3576 68.8531 48.3553 68.4023C48.3553 66.165 48.3345 63.9277 48.3375 61.6875C48.3297 61.15 48.4048 60.6146 48.56 60.1C48.6681 59.721 48.8519 59.3679 49.1002 59.0619C49.3486 58.7559 49.6564 58.5034 50.005 58.3197C50.3767 58.1282 50.7779 58.0008 51.1919 57.9428C51.7566 57.8697 52.3268 57.8498 52.8951 57.8835C53.4168 57.8941 53.9327 57.9945 54.4203 58.1802C54.82 58.3324 55.1803 58.5729 55.4741 58.8838C55.768 59.1946 55.9879 59.5677 56.1176 59.9754C56.2533 60.3576 56.3333 60.7573 56.3549 61.1623C56.3549 61.4204 56.3846 61.6815 56.3876 61.9397C56.3816 62.9397 56.3787 63.9337 56.3787 64.9277ZM51.3106 64.9277C51.3106 66.0375 51.3106 67.1442 51.3106 68.254C51.3096 68.3945 51.3235 68.5348 51.3522 68.6724C51.3723 68.8838 51.4675 69.0811 51.6204 69.2286C51.7733 69.3761 51.9739 69.464 52.186 69.4765C52.2668 69.4854 52.3484 69.4854 52.4293 69.4765C52.6098 69.478 52.7864 69.4246 52.9359 69.3234C53.0853 69.2222 53.2005 69.0779 53.266 68.9097C53.3537 68.6981 53.3981 68.4711 53.3966 68.2421C53.3966 66.0305 53.3966 63.8199 53.3966 61.6103C53.3944 61.4318 53.3695 61.2544 53.3224 61.0822C53.2917 60.9292 53.2204 60.7874 53.116 60.6715C53.0116 60.5556 52.8779 60.4699 52.729 60.4234C52.5194 60.3643 52.2988 60.3551 52.0851 60.3967C51.9416 60.4192 51.8066 60.479 51.6936 60.5702C51.5806 60.6613 51.4936 60.7806 51.4412 60.916C51.3545 61.1216 51.3111 61.3428 51.3136 61.5658L51.3106 64.9277Z" fill="#373332"/>
<path d="M22.7123 16.746C22.7123 15.6481 22.7123 14.5502 22.7123 13.4523C22.7121 12.9884 22.773 12.5265 22.8933 12.0785C23.0195 11.5317 23.2999 11.0325 23.7011 10.6402C24.1024 10.2478 24.6078 9.97879 25.1573 9.86493C25.4615 9.78291 25.7741 9.73611 26.089 9.72547C26.451 9.72547 26.816 9.6958 27.178 9.70767C27.8124 9.71443 28.4383 9.85497 29.0147 10.1201C29.6488 10.4218 30.1458 10.9516 30.4063 11.6037C30.6037 12.0806 30.7133 12.5893 30.7298 13.1052C30.7298 13.571 30.7505 14.0369 30.7505 14.5057C30.7505 16.3691 30.7505 18.2325 30.7505 20.0989C30.7614 20.7849 30.6142 21.4641 30.3203 22.084C30.1417 22.4519 29.8881 22.7785 29.5759 23.0426C29.2637 23.3068 28.8997 23.5028 28.5073 23.6181C28.1047 23.7495 27.6846 23.8195 27.2611 23.8258C27 23.8258 26.7418 23.8525 26.4807 23.8436C25.8288 23.8516 25.182 23.7285 24.5787 23.4816C24.2136 23.3236 23.8852 23.0917 23.614 22.8007C23.3429 22.5096 23.1349 22.1656 23.0031 21.7903C22.8386 21.3584 22.7473 20.9021 22.7331 20.4402C22.7153 19.8467 22.7123 19.2533 22.7093 18.6598C22.7064 18.0664 22.7123 17.3839 22.7123 16.746ZM25.6795 16.7697C25.6795 17.8587 25.6795 18.9447 25.6795 20.0337C25.677 20.2779 25.7203 20.5205 25.8071 20.7488C25.8529 20.8755 25.9282 20.9894 26.0267 21.0813C26.1253 21.1731 26.2443 21.2402 26.3739 21.2769C26.5725 21.3347 26.7822 21.3439 26.9851 21.3036C27.1358 21.2782 27.2771 21.2136 27.3949 21.1162C27.5126 21.0187 27.6026 20.892 27.6557 20.7488C27.7475 20.5218 27.7919 20.2784 27.7863 20.0337C27.7863 17.8577 27.7863 15.6886 27.7863 13.5265C27.7795 13.3044 27.7446 13.0841 27.6824 12.8707C27.6501 12.7346 27.5839 12.6088 27.4901 12.5051C27.3962 12.4013 27.2776 12.323 27.1453 12.2773C26.9547 12.212 26.7514 12.1927 26.5519 12.2209C26.3577 12.232 26.1729 12.3084 26.0274 12.4376C25.882 12.5669 25.7845 12.7414 25.7507 12.9331C25.7043 13.1276 25.6784 13.3265 25.6736 13.5265C25.6766 14.6066 25.6795 15.6896 25.6795 16.7697Z" fill="#373332"/>
<path d="M12.7958 17.752V23.6509H9.94727C9.94727 19.1011 9.94727 14.5563 9.94727 10.0164C9.94727 9.98375 9.94727 9.95111 9.94727 9.90957C9.99045 9.90203 10.034 9.89708 10.0778 9.89473C11.7009 9.89473 13.3418 9.89473 14.953 9.89473C15.339 9.89419 15.7227 9.95529 16.0894 10.0757C16.4266 10.1781 16.7316 10.3661 16.9744 10.6215C17.2173 10.8768 17.3898 11.1907 17.4751 11.5327C17.5646 11.8462 17.6086 12.171 17.6057 12.497C17.6057 12.9896 17.6057 13.4851 17.6057 13.9806C17.6081 14.3723 17.5293 14.7603 17.3743 15.12C17.1725 15.5962 16.7953 15.9765 16.3209 16.1823L16.2081 16.2328L16.3802 16.3188C16.6435 16.438 16.879 16.6108 17.0716 16.8262C17.3436 17.1463 17.515 17.5396 17.5642 17.9567C17.5917 18.1533 17.6056 18.3516 17.6057 18.5502C17.6057 19.8053 17.6057 21.0634 17.6057 22.3186C17.5987 22.6811 17.6436 23.0429 17.7392 23.3927C17.763 23.4728 17.7897 23.5529 17.8193 23.6479H14.9589C14.8829 23.552 14.8346 23.437 14.8195 23.3156C14.7662 23.0614 14.7335 22.8034 14.7215 22.5441C14.7215 21.3928 14.7215 20.2385 14.7215 19.0872C14.7186 18.8703 14.6978 18.6539 14.6592 18.4404C14.6347 18.2577 14.5442 18.0902 14.4049 17.9694C14.2656 17.8487 14.0869 17.783 13.9026 17.7846C13.5376 17.7698 13.1816 17.7639 12.7958 17.752ZM12.7958 11.9777V15.482C12.8138 15.4904 12.8327 15.4964 12.8522 15.4999C13.1816 15.4999 13.5139 15.4999 13.8432 15.4999C13.9884 15.5013 14.1312 15.4635 14.2566 15.3904C14.382 15.3172 14.4852 15.2115 14.5554 15.0844C14.6487 14.9121 14.6987 14.7196 14.7008 14.5236C14.7008 14.0726 14.7008 13.6335 14.7008 13.1706C14.6989 12.9709 14.6761 12.772 14.6325 12.5771C14.6051 12.4256 14.5271 12.2879 14.4112 12.1866C14.2953 12.0852 14.1484 12.0262 13.9946 12.0193C13.6148 11.9896 13.2201 11.9896 12.8017 11.9777H12.7958Z" fill="#373332"/>
<path d="M26.4512 58.0708H29.3591C29.3591 58.139 29.3591 58.2043 29.3591 58.2666V61.9668C29.3591 64.028 29.3591 66.0892 29.3591 68.1505C29.3605 68.3611 29.3844 68.571 29.4303 68.7766C29.4656 68.963 29.565 69.1313 29.7114 69.2521C29.8577 69.373 30.0417 69.4388 30.2314 69.4383C30.3712 69.4478 30.5117 69.4409 30.6498 69.4175C30.7912 69.3988 30.9242 69.3399 31.033 69.2479C31.1419 69.1559 31.2221 69.0345 31.264 68.8982C31.3007 68.8029 31.3247 68.7031 31.3352 68.6015C31.3566 68.4292 31.3675 68.2558 31.3679 68.0822C31.3679 64.8203 31.3679 61.5563 31.3679 58.2903V58.0708H34.2639C34.2639 58.1271 34.2639 58.1865 34.2639 58.2429V60.5098C34.2639 63.2338 34.2639 65.9577 34.2639 68.6816C34.2708 69.3332 34.0973 69.9741 33.7624 70.5332C33.4244 71.0989 32.8998 71.5291 32.2788 71.7497C31.7722 71.9299 31.238 72.0203 30.7003 72.0168C30.3561 72.0168 30.0148 72.0168 29.6736 72.002C29.0911 71.9819 28.52 71.8351 28.0001 71.5717C27.6489 71.3846 27.3423 71.1239 27.1011 70.8074C26.8599 70.491 26.6898 70.1262 26.6025 69.738C26.5078 69.3756 26.4599 69.0027 26.4601 68.6282V58.0708H26.4512Z" fill="#373332"/>
<path d="M64.8827 62.3082H62.0964C62.0964 62.2518 62.0964 62.1984 62.0964 62.145C62.0964 61.7889 62.0964 61.4299 62.0964 61.0708C62.0935 60.9573 62.0816 60.8442 62.0608 60.7326C62.0399 60.5714 61.9648 60.4222 61.8477 60.3095C61.7307 60.1968 61.5788 60.1273 61.4169 60.1124C61.2197 60.082 61.0185 60.088 60.8235 60.1302C60.6823 60.1536 60.5518 60.22 60.4498 60.3204C60.3479 60.4208 60.2794 60.5502 60.2538 60.691C60.1699 60.9961 60.1689 61.318 60.2508 61.6237C60.3326 61.9293 60.4945 62.2075 60.7196 62.4298C61.0164 62.7266 61.3606 62.9995 61.687 63.2755C62.2596 63.7503 62.8412 64.2161 63.408 64.6968C63.8557 65.0593 64.2381 65.4959 64.5385 65.9876C64.7864 66.4168 64.943 66.8926 64.9984 67.3851C65.0545 67.8777 65.0624 68.3746 65.0221 68.8687C64.9941 69.5632 64.7492 70.2315 64.3219 70.7796C64.0174 71.1576 63.6224 71.4526 63.1735 71.6372C62.6827 71.8447 62.1574 71.9584 61.6246 71.9725C61.2982 71.9725 60.9748 71.9992 60.6484 71.9903C60.0175 71.9919 59.3921 71.873 58.8058 71.6401C58.3445 71.4488 57.948 71.1289 57.6634 70.7186C57.3788 70.3082 57.2181 69.8248 57.2005 69.3257C57.2005 68.5601 57.1827 67.7946 57.1768 67.0291C57.1768 66.9964 57.1768 66.9638 57.1768 66.9371C57.2954 66.8985 59.7523 66.8866 59.9986 66.9371V68.6076C59.9937 68.7876 60.0271 68.9667 60.0965 69.1328C60.1642 69.3011 60.2937 69.437 60.4585 69.5126C60.7415 69.6469 61.0648 69.6692 61.3635 69.5749C61.5264 69.5259 61.6705 69.4283 61.7765 69.2952C61.8826 69.1621 61.9455 68.9999 61.957 68.8302C62.0234 68.4551 62.0123 68.0703 61.9243 67.6997C61.8463 67.3745 61.6714 67.0807 61.4229 66.857C61.0905 66.5602 60.7434 66.2635 60.3962 65.9668C59.8769 65.5395 59.3488 65.1241 58.8325 64.6909C58.3005 64.2644 57.8766 63.7185 57.5951 63.0975C57.4086 62.6504 57.308 62.1723 57.2984 61.688C57.2984 61.3468 57.2984 61.0026 57.2984 60.6614C57.3209 60.0271 57.5502 59.4175 57.9512 58.9255C58.2544 58.581 58.6404 58.3196 59.0728 58.1659C59.4764 58.0218 59.8976 57.9329 60.325 57.9018C60.8234 57.8603 61.3242 57.8543 61.8235 57.884C62.4163 57.898 63 58.0333 63.5385 58.2816C63.8533 58.4274 64.1296 58.6447 64.3455 58.9162C64.5613 59.1877 64.7108 59.5059 64.7818 59.8454C64.8412 60.1095 64.874 60.3789 64.8797 60.6495C64.8975 61.1332 64.8797 61.6168 64.8797 62.1005L64.8827 62.3082Z" fill="#373332"/>
<path d="M9.92353 66.9247H12.7483V67.1057C12.7483 67.6517 12.7483 68.1947 12.7483 68.7377C12.7396 68.9227 12.7934 69.1053 12.9011 69.256C13.0087 69.4067 13.164 69.5168 13.3418 69.5686C13.5759 69.6416 13.8259 69.6467 14.0628 69.5834C14.205 69.549 14.3346 69.4749 14.4365 69.3699C14.5383 69.2649 14.6084 69.1331 14.6385 68.9899C14.8012 68.4321 14.7515 67.8338 14.499 67.3105C14.3457 67.0307 14.1354 66.786 13.8818 66.5924C13.2083 66.0346 12.5288 65.4886 11.8493 64.9397C11.4287 64.6121 11.0526 64.231 10.7306 63.8062C10.3754 63.3228 10.1488 62.7572 10.0719 62.1623C10.022 61.7797 10.0061 61.3935 10.0244 61.0081C10.0294 60.5089 10.1301 60.0153 10.3211 59.5541C10.5901 58.9449 11.0894 58.4669 11.7098 58.2248C12.134 58.0583 12.5814 57.9582 13.0362 57.9281C13.5502 57.8826 14.067 57.8756 14.5821 57.9073C15.1855 57.9214 15.7791 58.063 16.3239 58.3227C16.6452 58.4793 16.925 58.7095 17.1405 58.9946C17.3561 59.2797 17.5012 59.6118 17.5642 59.9636C17.6107 60.1981 17.6335 60.4367 17.6324 60.6757C17.6324 61.1594 17.6324 61.6431 17.6324 62.1267V62.3018C17.5078 62.3374 15.1429 62.3493 14.8581 62.3018C14.8581 62.2484 14.8581 62.192 14.8581 62.1327C14.8581 61.7588 14.8581 61.3819 14.8581 61.0081C14.8502 60.8518 14.8182 60.6976 14.7631 60.5511C14.7246 60.4394 14.656 60.3404 14.5649 60.265C14.4738 60.1896 14.3638 60.1408 14.2468 60.1238C14.0072 60.0718 13.7585 60.08 13.5228 60.1476C13.3901 60.1736 13.2685 60.239 13.1737 60.3354C13.0789 60.4318 13.0154 60.5546 12.9917 60.6876C12.878 61.134 12.9307 61.6066 13.14 62.0169C13.2679 62.2431 13.4358 62.4442 13.6355 62.6104C14.407 63.2513 15.1874 63.8863 15.9559 64.5302C16.3767 64.8663 16.7544 65.253 17.0805 65.6815C17.4179 66.1515 17.6367 66.6961 17.7185 67.2689C17.785 67.7605 17.8019 68.2576 17.7689 68.7526C17.7563 69.3973 17.5675 70.0263 17.2229 70.5715C16.8076 71.186 16.1817 71.6272 15.4634 71.8118C15.1049 71.919 14.7336 71.9779 14.3596 71.9869C14.0391 71.9869 13.7186 72.0165 13.3982 72.0047C12.7405 72.0076 12.0889 71.8795 11.4813 71.6278C11.1236 71.4796 10.8054 71.2498 10.5525 70.9566C10.2995 70.6634 10.1186 70.3151 10.0244 69.9395C9.94881 69.6619 9.90991 69.3756 9.90869 69.0879C9.90869 68.4291 9.90869 67.7734 9.90869 67.1146L9.92353 66.9247Z" fill="#373332"/>
<path d="M34.3795 18.7519V20.5055C34.3722 20.5755 34.3722 20.6461 34.3795 20.7162C34.4007 20.8933 34.4805 21.0582 34.6064 21.1846C34.7322 21.3109 34.8968 21.3915 35.0738 21.4135C35.2381 21.4446 35.4062 21.4506 35.5723 21.4313C35.7665 21.4074 35.9466 21.3174 36.0822 21.1763C36.2179 21.0353 36.3008 20.8518 36.3171 20.6568C36.3749 20.325 36.3749 19.9857 36.3171 19.6539C36.2294 19.201 35.9807 18.7951 35.6168 18.5115C34.8631 17.8825 34.0946 17.2712 33.335 16.6481C32.8747 16.2851 32.4829 15.843 32.1778 15.3425C31.8641 14.8009 31.6945 14.188 31.6852 13.5622C31.6852 13.3574 31.6585 13.1497 31.6674 12.945C31.6722 12.6039 31.7099 12.264 31.7802 11.9302C31.8792 11.4557 32.109 11.0184 32.4435 10.6676C32.7781 10.3168 33.204 10.0666 33.6733 9.9451C34.0666 9.82208 34.4749 9.75321 34.8869 9.74036C35.2548 9.74036 35.6257 9.71069 35.9936 9.72256C36.6191 9.72308 37.2387 9.84397 37.8185 10.0786C38.1699 10.2219 38.4797 10.4509 38.7197 10.7449C38.9597 11.0388 39.1222 11.3881 39.1923 11.7611C39.2352 11.9791 39.2591 12.2005 39.2635 12.4228C39.2635 12.9331 39.2635 13.4435 39.2635 13.9568V14.1437H36.4892V13.9479C36.4892 13.5622 36.4892 13.1764 36.4892 12.7907C36.4877 12.7035 36.4758 12.6168 36.4536 12.5325C36.4246 12.3679 36.3391 12.2186 36.2118 12.1103C36.0845 12.0019 35.9234 11.9414 35.7563 11.9391C35.6059 11.9249 35.4543 11.9299 35.3052 11.9539C35.1316 11.962 34.9669 12.033 34.8419 12.1537C34.7168 12.2744 34.64 12.4365 34.6257 12.6097C34.5549 12.9798 34.5898 13.3624 34.7266 13.7135C34.8075 13.9162 34.9321 14.0986 35.0916 14.2476C35.3883 14.5147 35.685 14.7787 35.9818 15.031C36.5426 15.4998 37.1153 15.9597 37.679 16.4285C38.1567 16.8065 38.5687 17.2606 38.8986 17.7727C39.1354 18.17 39.2936 18.6093 39.3644 19.0664C39.4356 19.5834 39.4535 20.1064 39.4178 20.6272C39.4031 21.2051 39.2439 21.7703 38.9549 22.271C38.5886 22.8876 38.0074 23.3473 37.323 23.5618C36.9562 23.6973 36.5711 23.7764 36.1806 23.7962C35.7147 23.814 35.2489 23.8318 34.783 23.814C34.2282 23.8034 33.6804 23.6877 33.1688 23.4727C32.7644 23.3141 32.4086 23.0523 32.1369 22.7134C31.8651 22.3745 31.6869 21.9703 31.6199 21.5411C31.5799 21.3227 31.5591 21.1013 31.5576 20.8794C31.5576 20.2325 31.5576 19.5857 31.5576 18.9388V18.7519H34.3795Z" fill="#373332"/>
<path d="M17.6768 33.923V34.0922C17.6768 34.7924 17.6768 35.4927 17.6768 36.1959C17.6852 36.7767 17.5908 37.3543 17.3979 37.9021C17.249 38.3297 17.0009 38.7158 16.6739 39.0289C16.3469 39.342 15.9503 39.5731 15.5167 39.7032C15.1966 39.8098 14.8628 39.8698 14.5256 39.8813C14.1369 39.8813 13.7452 39.9139 13.3536 39.8991C12.7824 39.8922 12.2185 39.7711 11.6949 39.543C11.3076 39.3674 10.9648 39.1069 10.6921 38.7807C10.4193 38.4545 10.2235 38.071 10.1193 37.6588C10.0251 37.3359 9.96736 37.0035 9.94717 36.6677C9.94717 36.4867 9.9264 36.3087 9.9264 36.1307C9.9264 33.8251 9.9264 31.5196 9.9264 29.217C9.92104 28.5571 10.078 27.906 10.3834 27.3209C10.6992 26.7244 11.2293 26.2695 11.867 26.048C12.2327 25.9087 12.6184 25.8286 13.0094 25.8106C13.4752 25.8106 13.944 25.775 14.4099 25.7928C14.9917 25.8004 15.5656 25.9287 16.0953 26.1696C16.4042 26.3139 16.6803 26.52 16.9064 26.7752C17.1325 27.0304 17.3038 27.3292 17.4098 27.6533C17.5665 28.0996 17.6477 28.5689 17.6501 29.0419C17.6501 29.6651 17.6501 30.2911 17.6739 30.9143V31.0982H14.8372V30.9202C14.8372 30.392 14.8372 29.8639 14.8372 29.3387C14.8309 29.1493 14.799 28.9616 14.7422 28.7808C14.6977 28.616 14.6 28.4704 14.4642 28.3668C14.3285 28.2633 14.1623 28.2075 13.9915 28.2081C13.8783 28.1933 13.7635 28.1933 13.6503 28.2081C13.4815 28.2274 13.3235 28.3009 13.1999 28.4175C13.0764 28.5341 12.9939 28.6876 12.9648 28.855C12.9199 29.0285 12.897 29.2069 12.8966 29.3861C12.8966 31.661 12.8966 33.9359 12.8966 36.2108C12.8907 36.4508 12.9352 36.6893 13.0272 36.9111C13.0834 37.0566 13.1837 37.1808 13.314 37.2665C13.4444 37.3522 13.5983 37.3949 13.7541 37.3888H13.9351C14.1183 37.3988 14.2993 37.3452 14.4475 37.2371C14.5957 37.1289 14.7019 36.9728 14.7482 36.7953C14.8037 36.6144 14.8347 36.4267 14.8401 36.2375C14.8401 35.5254 14.8401 34.8132 14.8401 34.1011V33.9112L17.6768 33.923Z" fill="#373332"/>
<path d="M24.2672 55.7594L23.9171 53.4835H21.5433C21.4187 54.2372 21.3119 54.9968 21.1872 55.7594H18.6621C19.4158 51.168 20.1675 46.5827 20.9172 42.0032H24.6678C25.4749 46.5847 26.282 51.17 27.0891 55.7594H24.2672ZM23.561 51.1512C23.2791 49.2166 22.9498 47.3116 22.751 45.3889H22.7272C22.5166 47.3176 22.208 49.2463 21.9201 51.1661L23.561 51.1512Z" fill="#373332"/>
<path d="M40.6435 47.3707V49.9493H37.6199V53.2132H41.2933C41.3349 53.3408 41.3468 55.5069 41.3112 55.7532H34.7832C34.7506 55.6345 34.7358 42.4006 34.7832 42.0149C34.893 41.9793 40.9818 41.9674 41.2221 42.0149V44.5073H37.6496C37.614 44.626 37.6051 47.1601 37.6496 47.3737L40.6435 47.3707Z" fill="#373332"/>
<path d="M50.7885 28.4337H47.1892V31.3179C47.388 31.3179 47.5868 31.3179 47.7827 31.3179H50.2188V33.8667H47.213C47.1714 33.9943 47.1596 36.92 47.1981 37.1604H50.8864C50.928 37.288 50.9369 39.5015 50.8864 39.7003H44.3585C44.3258 39.5905 44.3169 26.1341 44.3585 25.9442H50.7855L50.7885 28.4337Z" fill="#373332"/>
<path d="M25.751 39.7093V25.968C25.8608 25.9353 31.9406 25.9235 32.1721 25.968V28.4278H28.5847V31.3209H31.5935V33.8786H28.6055C28.5639 33.9973 28.552 36.8755 28.5877 37.1693H32.2581C32.2967 37.2969 32.3086 39.4956 32.2581 39.7093H25.751Z" fill="#373332"/>
<path d="M67.6242 25.9506V28.6211H65.4373V39.7126H62.571C62.571 39.7126 62.571 39.6919 62.571 39.68C62.571 36.0204 62.571 32.3608 62.571 28.7012C62.5716 28.6884 62.5716 28.6755 62.571 28.6626C62.3959 28.6626 62.2119 28.6626 62.0309 28.6626H60.396V25.9921L67.6242 25.9506Z" fill="#373332"/>
<path d="M20.5966 60.5544H18.4246C18.389 60.4328 18.3741 58.329 18.4068 58.0649H25.6528C25.6854 58.1806 25.6943 60.3319 25.6528 60.5544H23.4867V71.7943L23.46 71.821C23.46 71.821 23.3977 71.821 23.365 71.821H20.6589C20.6377 71.817 20.6168 71.811 20.5966 71.8032V60.5544Z" fill="#373332"/>
<path d="M30.7949 53.1123H33.9995C34.0411 53.2459 34.0559 55.2784 34.0233 55.7413C33.9105 55.7769 28.0888 55.7858 27.8633 55.7413V42H30.7949V53.1123Z" fill="#373332"/>
<path d="M18.7954 25.9506H21.7181V37.0629H24.9495V39.7067H18.7954V25.9506Z" fill="#373332"/>
<path d="M21.5789 23.6509H18.7244C18.6918 23.5351 18.6799 13.6008 18.7244 13.3545C18.8431 13.3219 21.3949 13.316 21.5908 13.3545L21.5789 23.6509Z" fill="#373332"/>
<path d="M44.3405 61.4857H47.1831C47.2187 61.5985 47.2306 71.5744 47.1831 71.8177C47.0644 71.8473 44.5126 71.8533 44.3286 71.8177L44.3405 61.4857Z" fill="#373332"/>
<path d="M71.2446 39.7095H68.3931V29.3746H71.2446V39.7095Z" fill="#373332"/>
<path d="M68.3931 28.6031V25.9325C68.5177 25.8969 70.933 25.8851 71.2268 25.9147C71.2624 26.0275 71.2743 28.3301 71.2416 28.5853L68.3931 28.6031Z" fill="#373332"/>
<path d="M21.5966 9.90059V12.5385C21.475 12.5711 18.9261 12.577 18.7451 12.5385V9.90059H21.5966Z" fill="#373332"/>
<path d="M44.3522 58.05H47.1829C47.2185 58.1598 47.2274 60.498 47.1829 60.7205H44.3433L44.3522 58.05Z" fill="#373332"/>
</svg>
