<?xml version="1.0" ?>
<svg width="119" height="36" viewBox="0 0 119 36" fill="none" xmlns="http://www.w3.org/2000/svg">
<path d="M23.909 16.0565V1.60986H19.6431V0.296036H32.7733V1.60986H28.8345V33.1281H32.7733V34.4419H19.6431V33.1281H23.909V17.6974H9.13525V33.1281H13.074V34.4419H0.270996V33.1281H4.20976V1.60986H0.270996V0.296036H13.074V1.60986H9.13525V16.0565H23.909Z" fill="#373332"/>
<path d="M34.0874 34.442V33.1282H38.0289V12.4558H34.0874V11.1311H36.0581C38.356 11.1311 40.6538 11.1311 42.6246 10.4742V33.1282H46.2281V34.442H34.0874Z" fill="#373332"/>
<path d="M51.161 12.4555H47.8765V11.1308H52.4721C53.4589 11.1308 54.77 10.8037 55.7567 10.8037V17.0511C57.3976 13.4395 59.6955 10.8145 63.964 10.8145C66.5917 10.4847 71.1874 10.8145 71.1874 16.3942V33.1387H74.4692V34.4525H63.6369V33.1387H66.5917V17.0511C66.5917 12.7853 65.2779 12.1283 62.98 12.1283C59.0386 12.1283 55.7567 17.708 55.7567 21.9766V32.8116H59.0386V34.1254H48.2036V32.8116H51.4881V12.4555H51.161Z" fill="#373332"/>
<path d="M95.8122 27.2187C94.8255 31.1602 90.8867 34.1149 87.6022 34.1149C81.0357 34.1149 80.3788 29.5193 80.3788 23.6071V20.9821H97.4531C97.4531 14.4157 92.8575 10.4742 86.9453 10.4742C80.0517 10.4742 75.4561 16.7135 75.4561 23.9369C75.4561 30.5033 81.3656 35.4261 87.2751 35.4261C92.5276 35.4261 96.4664 32.8011 97.7802 27.2187H95.8122ZM80.7086 19.3412C80.7406 18.0025 80.9636 16.6753 81.371 15.3997C81.371 15.0726 83.0119 11.7881 86.6236 11.7881C89.5783 11.7881 92.2059 13.1019 92.2059 17.3705V19.3412H80.7086Z" fill="#373332"/>
<path d="M115.839 11.1312V17.6976H114.525C113.541 14.4157 111.57 11.7881 107.958 11.7881C103.033 11.7881 102.376 15.3997 102.376 16.0566C102.376 17.6976 102.706 18.6843 111.897 20.3252C116.493 21.3092 118.136 23.28 118.136 27.2187C118.136 32.1442 114.198 35.4261 109.599 35.4261C106.973 35.4261 104.676 34.4412 102.706 32.4713L101.392 34.4421H100.078V26.5618H101.392C102.376 30.8304 105.333 33.7851 109.929 33.7851C112.554 33.7851 115.509 31.8171 115.509 28.8624C115.509 26.5618 112.227 25.5778 107.301 24.2667C103.363 23.2827 100.078 22.6258 100.078 17.7003C100.078 15.0753 101.722 10.4769 107.958 10.4769C109.929 10.4769 111.57 11.1339 113.541 12.7775L114.525 11.1339L115.839 11.1312Z" fill="#373332"/>
<path d="M42.9543 0.298752H38.0288V5.22424H42.9543V0.298752Z" fill="#373332"/>
</svg>
