<svg width="255" height="75" viewBox="0 0 255 75" fill="none" xmlns="http://www.w3.org/2000/svg">
<path d="M64.8281 31.7799H47.875V34.7499H59.0312V39.6999H47.875V42.6699H64.8281V48.0599H42.1875V26.9399H64.8281V31.7799Z" fill="black"/>
<path d="M30.5933 48.0599H23.9214L19.3276 35.4099L14.9526 48.0599H8.49951L0.733887 26.9399H7.18701L11.8901 40.7999L16.7026 26.9399H22.1714L27.0933 40.7999L31.9058 26.9399H38.3589L30.5933 48.0599Z" fill="black"/>
<path d="M85.5 32.8798C84.7344 31.2298 82.7656 30.8998 80.3594 30.8998C77.9531 30.8998 74.6719 31.5598 74.6719 32.9898C74.6719 34.4198 76.5312 34.8598 78.6094 34.8598H82.6562C88.8906 34.8598 91.7344 36.2898 91.7344 40.5798C91.7344 44.8698 88.3437 48.7198 80.1406 48.7198C75.9844 48.7198 73.9062 48.3898 72.375 47.6198C70.8437 46.8498 68.4375 44.8698 68.2188 41.6798H74.4531C74.7812 43.4398 78.0625 43.9898 80.4687 43.9898C82.875 43.9898 85.8281 43.2198 85.8281 41.4598C85.8281 39.6998 81.3437 40.0298 77.0781 39.8098C72.8125 39.5898 68.6562 39.0398 68.6562 33.0998C68.6562 28.9198 71.7187 26.2798 80.3594 26.2798C89 26.2798 90.3125 28.3698 91.1875 32.6598L85.5 32.8798Z" fill="black"/>
<path d="M116.343 32.2199H108.14V48.0599H102.453V32.2199H94.2495V26.9399H116.343V32.2199Z" fill="black"/>
<path d="M130.125 0.42981H127.281V74.5258H130.125V0.42981Z" fill="url(#paint0_linear)"/>
<path d="M166.546 31.7799H149.703V34.7499H160.859V39.6999H149.703V42.6699H166.546V48.0599H144.015V26.9399H166.546V31.7799Z" fill="black"/>
<path d="M183.719 26.9399C191.266 26.9399 197.5 29.0299 197.5 37.4999C197.5 42.2299 194.219 48.0599 184.375 48.0599H171.797V26.9399H183.719ZM177.484 31.6699V42.6699H183.719C188.859 42.6699 191.594 40.7999 191.594 37.2799C191.594 33.7599 189.187 31.6699 183.719 31.6699H177.484Z" fill="black"/>
<path d="M222.985 34.0898C220.19 32.2562 216.916 31.299 213.579 31.3398C209.094 31.3398 206.469 33.7598 206.469 37.4998C206.469 41.2398 208.985 43.6598 213.688 43.6598C215.875 43.6598 218.938 43.5498 219.922 42.5598V41.1298H215.547V36.3998H225.5V46.6298C223.75 47.6198 219.813 48.7198 213.25 48.7198C206.688 48.7198 200.672 44.6498 200.672 37.4998C200.672 30.3498 206.579 26.2798 213.579 26.2798C220.579 26.2798 224.079 27.9298 225.719 29.1398L222.985 34.0898Z" fill="black"/>
<path d="M254.266 31.7799H237.422V34.7499H248.578V39.6999H237.422V42.6699H254.266V48.0599H231.625V26.9399H254.266V31.7799Z" fill="black"/>
<defs>
<linearGradient id="paint0_linear" x1="128.659" y1="74.5478" x2="128.659" y2="0.451812" gradientUnits="userSpaceOnUse">
<stop stop-color="#EF4223"/>
<stop offset="0.42" stop-color="#F26028"/>
<stop offset="1" stop-color="#F78F30"/>
</linearGradient>
</defs>
</svg>
