<?xml version="1.0" ?>
<svg width="105" height="40" viewBox="0 0 105 40" fill="none" xmlns="http://www.w3.org/2000/svg">
<path d="M0.745605 2.11617H7.02276C11.9564 2.11617 15.3139 3.7625 15.3139 8.60418C15.3139 13.2701 11.9915 15.4193 7.15793 15.4193H3.56519V24.1457H0.745605V2.11617ZM6.82271 13.1242C10.6479 13.1242 12.4997 11.7157 12.4997 8.59337C12.4997 5.47101 10.5479 4.39779 6.68755 4.39779H3.56519V13.1242H6.82271Z" fill="#373332"/>
<path d="M20.0444 0.237457H22.8316V6.7498L22.7288 10.1047C24.24 8.62863 25.8836 7.42023 28.1355 7.42023C31.5931 7.42023 33.1367 9.63427 33.1367 13.7974V24.135H30.3631V14.1651C30.3631 11.113 29.4223 9.83972 27.2759 9.83972C25.6295 9.83972 24.4563 10.6778 22.8451 12.3214V24.1377H20.0444V0.237457Z" fill="#373332"/>
<path d="M38.4033 2.65414C38.4033 2.16444 38.5978 1.69481 38.9441 1.34855C39.2904 1.00228 39.76 0.807755 40.2497 0.807755C40.7394 0.807755 41.209 1.00228 41.5553 1.34855C41.9016 1.69481 42.0961 2.16444 42.0961 2.65414C42.0961 3.76251 41.3229 4.46538 40.2497 4.46538C39.1765 4.46538 38.4033 3.76251 38.4033 2.65414ZM38.8413 7.82292H41.6257V24.1349H38.8413V7.82292Z" fill="#373332"/>
<path d="M47.6646 20.845V0.237457H50.449V21.0532C50.449 21.9237 50.8194 22.2264 51.26 22.2264C51.4524 22.232 51.6446 22.2093 51.8304 22.1588L52.2008 24.2404C51.6914 24.4675 51.1357 24.5712 50.5788 24.5432C48.5053 24.5378 47.6646 23.1942 47.6646 20.845Z" fill="#373332"/>
<path d="M55.5532 15.9791C55.5532 10.6697 59.146 7.42574 62.8712 7.42574C67.0316 7.42574 69.416 10.3778 69.416 15.0789C69.4247 15.6299 69.3794 16.1804 69.2808 16.7225H58.3052C58.5404 20.0774 60.5896 22.2941 63.6768 22.2941C65.1328 22.3155 66.5611 21.8941 67.7723 21.0857L68.7455 22.8645C67.1702 23.9899 65.2746 24.5786 63.3388 24.5433C58.9784 24.5379 55.5532 21.3831 55.5532 15.9791ZM66.9316 14.568C66.9316 11.3456 65.4231 9.63436 62.9388 9.63436C60.6571 9.63436 58.6431 11.4483 58.3052 14.568H66.9316Z" fill="#373332"/>
<path d="M73.9468 7.82313H76.2284L76.4636 10.1723H76.5636C78.1072 8.62872 79.786 7.42574 82.0352 7.42574C85.4927 7.42574 87.0364 9.63977 87.0364 13.8029V24.1405H84.2492V14.1652C84.2492 11.1131 83.3111 9.83982 81.162 9.83982C79.5184 9.83982 78.3424 10.6779 76.7312 12.3215V24.1378H73.9468V7.82313Z" fill="#373332"/>
<path d="M91.8345 19.9043C91.8345 16.2818 94.8568 14.5354 101.837 13.7623C101.804 11.7159 101.131 9.73431 98.4793 9.73431C96.5869 9.73431 94.8892 10.5751 93.6133 11.4131L92.5319 9.52075C94.0431 8.51511 96.3166 7.40674 98.9415 7.40674C102.902 7.40674 104.619 10.0587 104.619 14.0867V24.1215H102.334L102.064 22.1751H101.964C100.42 23.4835 98.6415 24.5243 96.5923 24.5243C93.8917 24.5378 91.8345 22.859 91.8345 19.9043ZM101.837 20.1746V15.7438C96.3328 16.3818 94.554 17.6362 94.554 19.7367C94.554 21.5506 95.7949 22.2535 97.3736 22.2535C98.9524 22.2535 100.258 21.5506 101.837 20.1746Z" fill="#373332"/>
<path d="M0.818359 31.5449H3.04051C4.78686 31.5449 5.97633 32.1262 5.97633 33.8401C5.97633 35.4918 4.80038 36.2515 3.08646 36.2515H1.81589V39.3414H0.818359V31.5449ZM2.98103 35.4432C4.3327 35.4432 4.98961 34.943 4.98961 33.8401C4.98961 32.7371 4.30026 32.3532 2.93508 32.3532H1.81589V35.4432H2.98103Z" fill="#373332"/>
<path d="M12.2758 31.5449H14.7088C16.301 31.5449 17.4418 32.1153 17.4418 33.7428C17.4418 34.9566 16.7525 35.6702 15.6955 35.9433L17.6797 39.3414H16.5497L14.6574 36.0487H13.2571V39.3414H12.2568L12.2758 31.5449ZM14.5709 35.2404C15.782 35.2404 16.4632 34.743 16.4632 33.7428C16.4632 32.7425 15.7955 32.3532 14.5709 32.3532H13.276V35.2404H14.5709Z" fill="#373332"/>
<path d="M23.3184 35.4079C23.3184 32.9127 24.6862 31.4016 26.6462 31.4016C28.6061 31.4016 29.9875 32.9236 29.9875 35.4079C29.9875 37.8923 28.6088 39.4846 26.6462 39.4846C24.6835 39.4846 23.3184 37.9166 23.3184 35.4079ZM28.9521 35.4079C28.9521 33.4696 28.0384 32.2802 26.6462 32.2802C25.254 32.2802 24.3537 33.4696 24.3537 35.4079C24.3537 37.3462 25.2567 38.606 26.6462 38.606C28.0357 38.606 28.9521 37.357 28.9521 35.4079Z" fill="#373332"/>
<path d="M36.3838 31.5449H38.6059C40.3523 31.5449 41.5418 32.1262 41.5418 33.8401C41.5418 35.4918 40.3658 36.2515 38.6519 36.2515H37.3921V39.3414H36.3946L36.3838 31.5449ZM38.5329 35.4432C39.8846 35.4432 40.5415 34.943 40.5415 33.8401C40.5415 32.7371 39.8522 32.3532 38.487 32.3532H37.3921V35.4432H38.5329Z" fill="#373332"/>
<path d="M47.8408 31.5449H52.3338V32.3884H48.8411V34.8214H51.7877V35.6675H48.8411V38.4952H52.4527V39.3387H47.8408V31.5449Z" fill="#373332"/>
<path d="M58.8242 31.5449H61.2572C62.8495 31.5449 63.9903 32.1153 63.9903 33.7428C63.9903 34.9566 63.3009 35.6702 62.2439 35.9433L64.2282 39.3414H63.0982L61.2194 36.0487H59.8299V39.3414H58.8296L58.8242 31.5449ZM61.1194 35.2404C62.3304 35.2404 63.0117 34.743 63.0117 33.7428C63.0117 32.7425 62.344 32.3532 61.1194 32.3532H59.8299V35.2404H61.1194Z" fill="#373332"/>
<path d="M71.7245 32.3884H69.3726V31.5449H75.0901V32.3884H72.7247V39.3414H71.7245V32.3884Z" fill="#373332"/>
<path d="M81.1997 31.5449H82.1999V39.3414H81.1997V31.5449Z" fill="#373332"/>
<path d="M89.0449 31.5449H93.5379V32.3884H90.0452V34.8214H92.9918V35.6675H90.0452V38.4952H93.6568V39.3387H89.0449V31.5449Z" fill="#373332"/>
<path d="M99.458 38.3191L100.018 37.6649C100.302 37.9583 100.642 38.1924 101.017 38.3539C101.392 38.5154 101.796 38.6009 102.205 38.6056C103.226 38.6056 103.827 38.0947 103.827 37.3459C103.827 36.5349 103.256 36.2997 102.532 35.978L101.402 35.4779C100.677 35.1697 99.8338 34.6236 99.8338 33.4693C99.8338 32.3149 100.866 31.4012 102.283 31.4012C102.71 31.398 103.134 31.4793 103.53 31.6402C103.925 31.8012 104.285 32.0388 104.589 32.3393L104.048 33.007C103.579 32.5453 102.949 32.2845 102.291 32.2798C101.423 32.2798 100.853 32.7204 100.853 33.4098C100.853 34.1586 101.529 34.4452 102.137 34.6939L103.254 35.1805C104.156 35.5617 104.859 36.1077 104.859 37.2621C104.859 38.4975 103.835 39.4842 102.196 39.4842C101.684 39.4923 101.175 39.3927 100.704 39.192C100.232 38.9913 99.8076 38.694 99.458 38.3191V38.3191Z" fill="#373332"/>
</svg>
