<?xml version="1.0" encoding="utf-8"?>
<!-- Generator: Adobe Illustrator 26.0.1, SVG Export Plug-In . SVG Version: 6.00 Build 0)  -->
<svg version="1.1" id="Layer_1" xmlns="http://www.w3.org/2000/svg" xmlns:xlink="http://www.w3.org/1999/xlink" x="0px" y="0px"
	 viewBox="0 0 65 73.6" style="enable-background:new 0 0 65 73.6;" xml:space="preserve">
<style type="text/css">
	.st0{fill:#373332;}
</style>
<path class="st0" d="M61.2,47.4c-2,0-3.6,1.5-3.6,3.3c0,1.8,1.6,3.3,3.6,3.3c2,0,3.6-1.5,3.6-3.3C64.7,48.9,63.1,47.4,61.2,47.4
	L61.2,47.4z M61.2,53.4c-1.6,0-2.9-1.2-2.9-2.7c0-1.5,1.3-2.7,2.9-2.7c1.6,0,2.9,1.2,2.9,2.7C64.1,52.2,62.8,53.4,61.2,53.4
	L61.2,53.4z M0.3,47.8v10.6c0,5.9,3.7,6.9,6.8,6.9c4.6,0,6.7-3,6.7-7V47.8h-3v11c0,1.4-0.5,4-3.7,3.9c-2.9-0.1-3.5-2.7-3.5-4.4V47.8
	H0.3z M26.5,48.5c0,0-1.9-0.9-4.1-0.9c-2.7,0-6.2,1.4-6.2,5.2c0,2.6,2,3.9,3.3,4.5c0.7,0.3,1.6,0.7,2.3,1.1c0.4,0.2,1.8,0.7,1.8,2.2
	c0,1.7-1.9,2.2-2.7,2.2c-3,0-5-1.3-5-1.3l0.3,3.3c0,0,1.2,0.6,4.8,0.6c3.5,0,5.9-2.2,5.9-5.2c0-2.3-1.6-3.7-3-4.3
	c-1.1-0.5-1.7-0.8-2.6-1.2c-0.9-0.4-1.9-1.2-1.9-2.3c0-1.2,1.2-2.1,2.9-2.1c2.5,0,3.5,1.1,4.1,1.5V48.5z M51.2,47.8h-3.6l0.6,1.4
	L42.5,64l-5.8-16.2H33l0.6,1.4l-6,15.8h3.3l1.1-3h6.2l1,3h6.2l1.1-3h6.2l1.1,3h3.6L51.2,47.8z M32.7,59.7l2.4-6.7l2.2,6.7H32.7z
	 M47.3,59.7l2.4-6.7l2.2,6.7H47.3z"/>
<path class="st0" d="M61.9,50.8c0,0,0.7-0.2,0.7-0.9c0-0.6-0.7-1-1.5-1s-1.3,0.2-1.3,0.2v3.2h0.9v-1.2h0.3l1,1.1h1.2L61.9,50.8z
	 M61.2,50.6h-0.4v-1.1c0,0,0.8-0.1,0.8,0.5C61.6,50.5,61.2,50.6,61.2,50.6L61.2,50.6z M0.1,28.5l0.2,5.4c0,0,1.3-1,2.9-1
	c1.5,0,3.2,1.1,3.2,1.1l13.5,7.7l1.1-4.9L6.4,28.4c0,0-1.7-1.1-3.2-1.1C1.6,27.4,0.1,28.5,0.1,28.5"/>
<path class="st0" d="M0.1,21.4l0.2,5.4c0,0,1.3-1,2.9-1c1.5,0,3.2,1.1,3.2,1.1l15,8.6l1.1-4.9L6.4,21.4c0,0-1.7-1.1-3.2-1.1
	S0.1,21.4,0.1,21.4"/>
<path class="st0" d="M0.1,14.4l0.2,5.4c0,0,1.3-1,2.9-1c1.5,0,3.2,1.1,3.2,1.1l16.4,9.4l1.1-4.9L6.4,14.3c0,0-1.7-1.1-3.2-1.1
	C1.6,13.3,0.1,14.4,0.1,14.4"/>
<path class="st0" d="M28.3,5.8l1.5,6.4L50.3,24c0,0,1.6,1.1,3.2,1.1c1.6,0,3-1.1,3-1.1l-0.2-5.4c0,0-1.3,1-2.9,1
	c-1.6,0-3.2-1.1-3.2-1.1L34.4,9.3l-1.1-4.1c0-0.2,0.2-0.3,0.2-0.3l2.7-0.8c0.4,0,0.6,0.3,0.6,0.6L37,5c0.1,0.1,0.5-0.1,0.5-0.2V3.2
	c0-0.3-0.1-0.5-0.2-0.8c-0.1-0.2-0.3-0.5-0.4-0.7c-0.2-0.2-0.4-0.3-0.7-0.4c-0.2-0.1-0.5-0.1-0.8-0.1h-2.7c0,0-0.4-0.9-1.5-0.9h-5.1
	c-1.3,0-1.7,1.2-1.7,1.2l-3.5,14.1L6.4,7.3c0,0-1.6-1.1-3.2-1.1s-3,1.1-3,1.1l0.2,5.4c0,0,1.2-1,2.8-1c1.6,0,3.2,1.1,3.2,1.1
	l17.9,10.2L28.3,5.8z"/>
<path class="st0" d="M30.2,13.9l1.5,6.4L50.3,31c0,0,1.7,1.1,3.2,1.1c1.5,0,3-1.1,3-1.1l-0.2-5.4c0,0-1.2,1-2.9,1
	c-1.7,0-3.2-1.1-3.2-1.1L30.2,13.9z"/>
<path class="st0" d="M32.1,22l1.5,6.4L50.3,38c0,0,1.7,1.1,3.2,1.1c1.5,0,3-1.1,3-1.1l-0.2-5.4c0,0-1.2,1-2.9,1
	c-1.7,0-3.2-1.1-3.2-1.1L32.1,22z"/>
<path class="st0" d="M34,30.2l1.5,6.4l14.8,8.5c0,0,1.7,1.1,3.2,1.1c1.5,0,3-1.1,3-1.1l-0.2-5.4c0,0-1.2,1-2.9,1
	c-1.7,0-3.2-1.1-3.2-1.1L34,30.2z"/>
<g>
	<path class="st0" d="M1.1,67.5h2c0.6,0,1.1,0.2,1.6,0.6c0.3,0.3,0.5,0.8,0.5,1.2l0,0c0,0.8-0.6,1.6-1.4,1.7l1.6,2.4H4.5l-1.5-2.3
		H1.7v2.3H1.1V67.5z M3,70.6c1,0,1.5-0.5,1.5-1.2l0,0c0-0.8-0.5-1.2-1.4-1.2H1.7v2.5L3,70.6z"/>
	<path class="st0" d="M6.9,67.5h3.6v0.6h-3v2.1h2.7v0.6H7.5v2.1h3v0.6H6.9L6.9,67.5z"/>
	<path class="st0" d="M14.4,67.5H15l2.3,6h-0.7L16,71.9h-2.7l-0.6,1.6h-0.7L14.4,67.5z M15.8,71.3l-1.1-3l-1.1,3L15.8,71.3z"/>
	<path class="st0" d="M18.9,67.5h0.6v5.3h2.8v0.6h-3.4V67.5z"/>
	<path class="st0" d="M26.9,67.5h3.6v0.6h-3v2.1h2.7v0.6h-2.7v2.1h3v0.6h-3.7L26.9,67.5z"/>
	<path class="st0" d="M32.1,72.7l0.4-0.5c0.4,0.5,1,0.7,1.7,0.7c0.6,0.1,1.1-0.3,1.2-0.9c0,0,0,0,0-0.1l0,0c0-0.5-0.2-0.8-1.3-1.2
		c-1.2-0.5-1.7-0.9-1.7-1.7l0,0c0-0.9,0.8-1.6,1.7-1.6c0,0,0.1,0,0.1,0c0.6,0,1.3,0.2,1.8,0.7l-0.4,0.5c-0.4-0.4-0.9-0.6-1.4-0.6
		c-0.5-0.1-1,0.3-1.1,0.9c0,0,0,0,0,0.1l0,0c0,0.5,0.3,0.8,1.4,1.2c1.2,0.5,1.6,0.9,1.6,1.7l0,0c0,0.9-0.8,1.6-1.8,1.6
		C33.4,73.5,32.7,73.2,32.1,72.7z"/>
	<path class="st0" d="M38.9,68.1h-1.6v-0.6h4v0.6h-1.7v5.3h-0.6L38.9,68.1z"/>
	<path class="st0" d="M44.2,67.5h0.6l2.3,6h-0.7l-0.6-1.6h-2.7l-0.6,1.6h-0.7L44.2,67.5z M45.6,71.3l-1.1-3l-1.1,3L45.6,71.3z"/>
	<path class="st0" d="M49.5,68.1h-1.7v-0.6h4v0.6h-1.7v5.3h-0.6L49.5,68.1z"/>
	<path class="st0" d="M53.5,67.5h3.6v0.6h-3v2.1h2.7v0.6h-2.7v2.1h3v0.6h-3.7L53.5,67.5z"/>
</g>
</svg>
